# Blender v3.0.1 OBJ File: 'Polonskies.blend'
# www.blender.org
mtllib ground.mtl
o Ground_Cube.003
v -61.215263 -8.952147 161.019485
v -61.215263 -5.433790 161.019485
v -61.215263 -8.952147 -132.862793
v -61.215263 -5.433790 -132.862793
v 254.365570 -8.952147 161.019485
v 254.365570 -5.433790 161.019485
v 254.365570 -8.952147 -132.862793
v 254.365570 -5.433790 -132.862793
v 56.959587 -8.952147 -132.862793
v 20.161098 -8.952147 -132.862793
v 20.161098 -5.433790 -132.862793
v 56.959587 -5.433790 -132.862793
v 20.161098 -8.952147 161.019485
v 56.959587 -8.952147 161.019485
v 56.959587 -5.433790 161.019485
v 20.161098 -5.433790 161.019485
v -61.215263 -8.952147 -60.748913
v -61.215263 -8.952147 58.396366
v -61.215263 -5.433790 58.396366
v -61.215263 -5.433790 -60.748913
v 254.365570 -8.952147 58.396366
v 254.365570 -8.952147 -60.748913
v 254.365570 -5.433790 -60.748913
v 254.365570 -5.433790 58.396366
v 55.431087 -6.326369 -60.226357
v 55.431087 -6.326369 57.873802
v 21.689602 -6.326369 -60.226357
v 21.689602 -6.326369 57.873802
v 20.161098 -8.952147 -73.724075
v 20.161098 -8.952147 58.396366
v 56.959587 -8.952147 -73.724075
v 56.959587 -8.952147 15.150865
v 56.959587 -5.433790 -60.748913
v 56.959587 -5.433790 58.396366
v 20.161098 -5.433790 -60.748913
v 20.161098 -5.433790 58.396366
vt 0.813049 0.281730
vt 0.813049 0.000000
vt 0.912803 0.000000
vt 0.912803 0.281730
vt 0.974137 0.436540
vt 0.974137 0.718270
vt 0.701067 0.718270
vt 0.701067 0.436540
vt 0.281730 0.860227
vt 0.000000 0.860227
vt 0.000000 0.718270
vt 0.281730 0.718270
vt 0.419337 0.436540
vt 0.419337 0.718270
vt 0.306770 0.718270
vt 0.306770 0.436540
vt 0.201779 0.163470
vt 0.141957 0.436540
vt 0.000000 0.436540
vt 0.000000 0.163470
vt 0.671091 0.112567
vt 0.671091 0.000000
vt 0.813049 0.000000
vt 0.813049 0.112567
vt 0.671091 0.436540
vt 0.671091 0.163470
vt 0.813049 0.163470
vt 0.813049 0.436540
vt 0.141957 0.000000
vt 0.141958 0.112567
vt 0.000000 0.112567
vt 0.000000 0.000000
vt 0.419337 0.436540
vt 0.701067 0.436540
vt 0.701067 0.709609
vt 0.419337 0.709609
vt 0.912803 0.281730
vt 0.912803 0.000000
vt 0.963706 0.000000
vt 0.963706 0.281730
vt 0.281730 0.972794
vt 0.000000 0.972794
vt 0.000000 0.860227
vt 0.281730 0.860227
vt 0.281730 1.000000
vt 0.281730 0.718270
vt 0.332633 0.718270
vt 0.332633 1.000000
vt 0.406524 0.112567
vt 0.406524 0.163470
vt 0.324718 0.163470
vt 0.324718 0.112567
vt 0.406524 0.000000
vt 0.306770 0.000000
vt 0.406524 0.163470
vt 0.406524 0.112567
vt 0.506279 0.112567
vt 0.506279 0.163470
vt 0.819246 0.881637
vt 0.772571 0.881637
vt 0.772571 0.718270
vt 0.819246 0.718270
vt 0.406524 0.436540
vt 0.506279 0.436540
vt 0.406524 0.000000
vt 0.506279 0.000000
vt 0.406524 0.436540
vt 0.306770 0.436540
vt 0.701067 0.974176
vt 0.419337 0.974176
vt 0.419337 0.874422
vt 0.701067 0.874422
vt 0.419337 0.709609
vt 0.701067 0.709609
vt 0.164812 0.718270
vt 0.164813 0.436540
vt 0.000000 0.718270
vt 0.000000 0.436540
vt 0.332633 0.882359
vt 0.332633 0.718993
vt 0.404137 0.718270
vt 0.404137 0.883082
vt 0.772571 0.718993
vt 0.772571 0.882359
vt 0.701067 0.883082
vt 0.701067 0.718270
vt 0.884525 0.334747
vt 0.884525 0.381422
vt 0.813049 0.383536
vt 0.813049 0.332633
vt 0.884525 0.283844
vt 0.884525 0.330519
vt 0.813049 0.332633
vt 0.813049 0.281730
vn -1.0000 0.0000 0.0000
vn 0.0000 0.0000 -1.0000
vn 1.0000 0.0000 0.0000
vn 0.0000 0.0000 1.0000
vn 0.0000 -1.0000 0.0000
vn 0.0000 1.0000 0.0000
vn -0.5043 0.8635 0.0000
vn 0.5043 0.8635 0.0000
vn 0.0000 0.5052 0.8630
vn 0.0000 0.5052 -0.8630
usemtl Material
s off
f 17/1/1 20/2/1 4/3/1 3/4/1
f 9/5/2 12/6/2 8/7/2 7/8/2
f 21/9/3 24/10/3 6/11/3 5/12/3
f 13/13/4 16/14/4 2/15/4 1/16/4
f 32/17/5 21/18/5 5/19/5 14/20/5
f 36/21/6 19/22/6 2/23/6 16/24/6
f 24/25/6 34/26/6 15/27/6 6/28/6
f 34/26/6 36/21/6 16/24/6 15/27/6
f 18/29/5 30/30/5 13/31/5 1/32/5
f 30/30/5 32/17/5 14/20/5 13/31/5
f 5/33/4 6/34/4 15/35/4 14/36/4
f 14/37/4 15/38/4 16/39/4 13/40/4
f 3/41/2 4/42/2 11/43/2 10/44/2
f 10/45/2 11/46/2 12/47/2 9/48/2
f 10/49/5 9/50/5 31/51/5 29/52/5
f 29/52/5 31/51/5 32/17/5 30/30/5
f 3/53/5 10/49/5 29/52/5 17/54/5
f 17/54/5 29/52/5 30/30/5 18/29/5
f 12/55/6 11/56/6 35/57/6 33/58/6
f 25/59/6 27/60/6 28/61/6 26/62/6
f 8/63/6 12/55/6 33/58/6 23/64/6
f 23/64/6 33/58/6 34/26/6 24/25/6
f 11/56/6 4/65/6 20/66/6 35/57/6
f 35/57/6 20/66/6 19/22/6 36/21/6
f 9/50/5 7/67/5 22/68/5 31/51/5
f 31/51/5 22/68/5 21/18/5 32/17/5
f 7/69/3 8/70/3 23/71/3 22/72/3
f 22/72/3 23/71/3 24/73/3 21/74/3
f 1/16/1 2/15/1 19/75/1 18/76/1
f 18/76/1 19/75/1 20/77/1 17/78/1
f 25/79/7 26/80/7 34/81/7 33/82/7
f 28/83/8 27/84/8 35/85/8 36/86/8
f 27/87/9 25/88/9 33/89/9 35/90/9
f 26/91/10 28/92/10 36/93/10 34/94/10
